<svg width="12" height="12" viewBox="0 0 12 12" fill="none" xmlns="http://www.w3.org/2000/svg">
<g clip-path="url(#clip0_643_2340)">
<path d="M5.68501 1.61792C3.09439 1.61792 0.986755 3.72556 0.986755 6.31618C0.986755 8.9068 3.09439 11.0144 5.68501 11.0144C8.27563 11.0144 10.3833 8.9068 10.3833 6.31618C10.3833 3.72556 8.27563 1.61792 5.68501 1.61792ZM4.74583 8.38952L3.33375 6.98048C3.15016 6.79729 3.14979 6.49997 3.33292 6.31632C3.51616 6.13256 3.8137 6.13222 3.99736 6.31556L4.74489 7.06179L6.89998 4.9067C7.08343 4.72325 7.38086 4.72325 7.56431 4.9067C7.74777 5.09015 7.74777 5.38758 7.56431 5.57103L4.74583 8.38952Z" fill="#2FAB73"/>
</g>
<defs>
<clipPath id="clip0_643_2340">
<rect width="11.2758" height="11.2758" fill="white" transform="translate(0.0467529 0.678223)"/>
</clipPath>
</defs>
</svg>
